<?xml version="1.0" encoding="utf-8"?>
<!-- Generator: Adobe Illustrator 21.0.0, SVG Export Plug-In . SVG Version: 6.00 Build 0)  -->
<svg version="1.2" xmlns="http://www.w3.org/2000/svg" viewBox="0 0 4530 540" width="4530" height="540">
	<title>New Project</title>
	<style>
		.s0 { fill: #000000 } 
	</style>
	<path id="SOFTWAREBUDE" class="s0" aria-label="SOFTWAREBUDE"  d="m95.5 382.6q13.6-20.4 22.4-38 9.2-17.6 17.6-40.8 28.4 16.4 66 25.6 37.6 9.2 70 9.2 33.2 0 46.8-5.6 13.6-6 13.6-12.8 0-24.4-74.4-24.4-81.6 0-118.4-16.8-36.8-17.2-36.8-55.2 0-54 44.8-79.6 44.8-25.6 116.4-25.6 41.6 0 85.2 10.8 44 10.4 79.2 28.8-11.6 26.4-24.4 64.4-2.4 8-4 12-20.4-16.4-61.6-27.2-41.2-11.2-72.8-11.2-38 0-51.2 5.2-13.2 4.8-13.2 14.4 0 9.6 18 15.6 18.4 5.6 52.8 5.6 84.8 0 123.2 19.6 38.4 19.2 38.4 59.2 0 56-40.8 80.8-40.8 24.4-123.6 24.4-44.4 0-90.4-9.6-46-10-82.8-28.8zm547.6 38.4q-91.6 0-134.8-39.6-43.2-40-43.2-112 0-71.2 42.8-111.2 43.2-40 135.2-40 92.4 0 135.2 40 43.2 40 43.2 111.2 0 72.4-42.8 112-42.8 39.6-135.6 39.6zm0-81.6q44.4 0 64-16.8 19.6-17.2 19.6-53.2 0-35.2-19.6-52.4-19.6-17.2-64-17.2-44 0-63.6 17.2-19.6 17.2-19.6 52.4 0 35.6 19.6 52.8 19.6 17.2 63.6 17.2zm522.4-212.8v74.8h-217.6v42q20.4 0.4 61.2 0.4 70.4 0 143.2-2.4v78.4q-72.8-2.8-153.6-2.8-33.6 0-50.8 0.4v99.6h-94.4q3.2-77.6 3.2-145.2 0-67.6-3.2-145.2zm355.6 0v84q-62.8-2-122-2.4v208.8h-100v-208.8q-59.6 0.4-121.6 2.4v-84zm288.8 0l31.2 181.2 20.8-181.2h97.6l-53.6 290.4h-122.8l-27.2-162-31.6 162h-117.6l-53.6-290.4h97.6l20.4 178.8 32-178.8zm505.6 290.4h-103.6q-7.6-22.8-20.4-57.2h-127.6l-20 57.2h-100.4l112-290.4h147.2zm-228.8-119.6h82q-15.2-42-31.2-84l-9.6-26q-14 36.4-41.2 110zm571.2-74q0 34.8-17.2 58.8-16.8 24-58 34.8 4.8 6.4 6.8 10l64.8 90h-108.8q-17.6-32.8-55.6-92.8h-58.8v92.8h-94.4q3.2-77.6 3.2-145.2 0-67.6-3.2-145.2h94.4v0.4h82q80.8 0 112.8 26 32 26 32 70.4zm-172.8-19.6h-54v45.6h54q34 0 51.2-2 17.6-2.4 24.4-7.2 6.8-4.8 6.8-14 0-8.8-6.4-13.6-6.4-4.8-24-6.8-17.6-2-52-2zm299.2 98.4v41.6q152-0.8 220.4-4.4-2.8 16.4-3.6 34-0.4 17.2-0.4 43.6h-310.8q3.2-77.6 3.2-145.2 0-67.6-3.2-145.2h310.8v72.4h-216.4v38.4q19.2 0.4 56.8 0.4 63.6 0 131.6-2.4v68.8q-68-2.4-131.6-2.4-37.6 0-56.8 0.4zm486.8-29.6q91.2 0 91.2 58 0 27.2-12.4 46.4-12.4 18.8-44.4 29.6-32 10.4-88.8 10.4h-180q3.2-77.6 3.2-145.2 0-67.6-3.2-145.2h94v0.4h85.2q49.6 0 78 8.4 28.8 8 40.4 23.6 12 15.6 12 39.6 0 24.4-17.2 43.6-16.8 18.8-58 30.4zm-63.6-72.8h-76.8v37.2h76.8q24.8 0 34.4-4.4 10-4.4 10-16 0-9.2-10.4-12.8-10-4-34-4zm-76.8 144h76.8q20.8 0 31.6-1.6 11.2-2 16-6.4 4.8-4.8 4.8-12.8 0-10.4-11.6-14.8-11.2-4.8-40.8-4.8h-76.8zm500.4-65.6v-152h99.2v159.2q-0.8 58.8-40.4 97.2-39.2 38.4-132.4 38.4-94.4 0-129.2-36.4-34.8-36.8-34-96.4v-162h99.2v155.6q0 17.6 2.4 28.8 2.8 10.8 16.8 20.4 14.4 9.6 46 9.6 34.4 0 50.4-9.6 16-10 18.8-22 3.2-12 3.2-30.8zm259.2-156q75.2 0 118.8 18.4 43.6 18 60.8 50.4 17.6 32 17.6 78.8 0 44.4-20 77.6-20 33.2-60 51.6-40 18-98.4 18-35.6 0-72.4 0-36.8 0-74.4-0.4 3.2-78.8 3.2-146.8 0-68.8-3.2-143.6 47.6-4 128-4zm-28 215.2h58q37.2 0 49.6-18 12.4-18 12.4-49.6 0-30.4-13.2-49.2-12.8-18.8-48.8-18.8-38.8 0-58 2.4zm351.6-35.2v41.6q152-0.8 220.4-4.4-2.8 16.4-3.6 34-0.4 17.2-0.4 43.6h-310.8q3.2-77.6 3.2-145.2 0-67.6-3.2-145.2h310.8v72.4h-216.4v38.4q19.2 0.4 56.8 0.4 63.6 0 131.6-2.4v68.8q-68-2.4-131.6-2.4-37.6 0-56.8 0.4z"/>
</svg>
